<svg width="33" height="37" viewBox="0 0 33 37" fill="none" xmlns="http://www.w3.org/2000/svg">
    <path fill-rule="evenodd" clip-rule="evenodd"
        d="M2.35967 0.130432H6.93312L12.2874 5.26163H20.9881L26.3424 0.130432H30.9159L32.9238 2.91913V8.71961L30.8043 13.2931V16.8626L29.912 18.6474V22.8862L25.6731 29.0213V31.4754L21.5459 34.7102L20.0958 36.9412H13.1798L11.7297 34.7102L7.60241 31.4754V29.0213L3.3636 22.8862V18.6474L2.47121 16.8626V13.2931L0.351807 8.71961V2.91913L2.35967 0.130432ZM3.1405 1.6921L1.91348 3.47687V8.49651L4.03288 12.9584V16.528L4.92526 18.3127V22.44L9.16408 28.5751V30.6945L12.8452 33.5948L14.0722 35.3795H19.2034L20.4304 33.5948L24.1115 30.6945V28.5751L28.3503 22.44V18.3127L29.2427 16.528V12.9584L31.3621 8.49651V3.47687L30.0235 1.6921H27.0117L21.2112 7.15794H20.765V6.8233H12.5105V7.15794H11.9528L6.26384 1.6921H3.1405Z"
        fill="white" />
    <path d="M19.4268 28.9097H13.8494L16.0803 30.806V32.2561H17.1958V30.806L19.4268 28.9097Z"
        fill="white" />
    <rect x="6.92969" y="17.3675" width="7.90096" height="4.12737" fill="white" />
    <rect x="12.7085" y="19.0185" width="7.90096" height="0.825474" fill="white" />
    <rect x="18.4871" y="17.3675" width="7.90096" height="4.12737" fill="white" />
</svg>